<svg xmlns="http://www.w3.org/2000/svg" xmlns:xlink="http://www.w3.org/1999/xlink" width="24" height="23.374" viewBox="0 0 24 23.374">
  <defs>
    <linearGradient id="linear-gradient" x1="0.471" y1="0.925" x2="0.525" y2="0.329" gradientUnits="objectBoundingBox">
      <stop offset="0" stop-color="#0064e0"/>
      <stop offset="0.058" stop-color="#0067e3"/>
      <stop offset="0.273" stop-color="#0072ec"/>
      <stop offset="0.625" stop-color="#007df6"/>
      <stop offset="1" stop-color="#0081f9"/>
    </linearGradient>
    <linearGradient id="linear-gradient-2" x1="0.955" y1="0.253" x2="0.347" y2="0.616" xlink:href="#linear-gradient"/>
    <linearGradient id="linear-gradient-3" x1="0.38" y1="-0.072" x2="0.593" y2="1.404" xlink:href="#linear-gradient"/>
  </defs>
  <g id="Group_1" data-name="Group 1" transform="translate(0 0.001)">
    <path id="Path_1" data-name="Path 1" d="M109.826,23.3l-.037-.031a18.7,18.7,0,0,1-3.612-3.882,18.978,18.978,0,0,1-2.819-15.4v0a.989.989,0,0,0-1.91-.511,21.074,21.074,0,0,0-.814,5.922,21.328,21.328,0,0,0,2.492,9.868c.28.53.581,1.049.906,1.554A21.522,21.522,0,0,0,108,25.4l0,0a1.389,1.389,0,1,0,1.82-2.1Z" transform="translate(-86.305 -2.368)" fill="url(#linear-gradient)"/>
    <path id="Path_2" data-name="Path 2" d="M6.487,18.5a21.075,21.075,0,0,0,5.5-2.336,21.327,21.327,0,0,0,4.646-3.8,21.419,21.419,0,0,0,3.419-4.969,21.378,21.378,0,0,0,1.9-5.758v0a1.389,1.389,0,0,0-2.735-.487c0,.014-.006.034-.008.048a18.7,18.7,0,0,1-1.482,5.091,18.939,18.939,0,0,1-2.868,4.5,19.048,19.048,0,0,1-4.028,3.539A18.994,18.994,0,0,1,5.949,16.6h0a.989.989,0,0,0,.54,1.9Z" transform="translate(-4.498 0)" fill="url(#linear-gradient-2)"/>
    <path id="Path_3" data-name="Path 3" d="M16.822,107.889A21.34,21.34,0,0,0,.914,107.4h0a1.389,1.389,0,0,0,.956,2.609l.046-.018a18.7,18.7,0,0,1,5.145-1.281A18.907,18.907,0,0,1,19.49,111.8a21.269,21.269,0,0,1-1.763-2.361C17.4,108.938,17.1,108.419,16.822,107.889Z" transform="translate(0 -90.991)" fill="url(#linear-gradient-3)"/>
  </g>
</svg>
