<?xml version="1.0" encoding="utf-8"?>
<!-- Generator: Adobe Illustrator 22.0.1, SVG Export Plug-In . SVG Version: 6.00 Build 0)  -->
<svg version="1.1" id="Layer_1" xmlns="http://www.w3.org/2000/svg" xmlns:xlink="http://www.w3.org/1999/xlink" x="0px" y="0px"
	 viewBox="0 0 108 37" style="enable-background:new 0 0 108 37;" xml:space="preserve">
<style type="text/css">
	.st0{fill:#FFFFFF;}
</style>
<g>
	<g>
		<path class="st0" d="M36.3,22l-1.2,1.2v4.5h-2.8V9.4h2.8V20h0.1l4.8-5.2h3.4v0.1L38,20.2l6.3,7.3v0.1H41L36.3,22z"/>
		<path class="st0" d="M55.2,16L55.2,16l0.1-1.1h2.8v12.8h-2.8v-1.5h-0.1c-0.8,0.9-2.1,1.6-3.8,1.6c-3.3,0-5.9-2.8-5.9-6.4
			s2.7-6.4,6.2-6.4C53.3,14.8,54.4,15.3,55.2,16z M55.3,23.4v-5.3c-0.8-0.6-2-1-3.4-1c-2.1,0-3.8,1.8-3.8,4.1s1.7,4.1,3.8,4.1
			C53.3,25.3,54.6,24.8,55.3,23.4z"/>
		<path class="st0" d="M61.6,24.5c1.2,0.4,2.3,0.7,3.5,0.7c1.2,0,2.2-0.4,2.2-1.5c0-0.8-0.5-1.3-2.3-1.7c-2.3-0.5-3.9-1.6-3.9-3.6
			c0-2.5,2.2-3.7,4.6-3.7c1.4,0,2.7,0.4,3.9,0.9l-0.5,2.2c-1.1-0.4-2.2-0.7-3.3-0.7c-1,0-2,0.5-2,1.4c0,0.6,0.5,1.2,2.2,1.5
			c2.5,0.5,4,1.6,4,3.7c0,2.6-2.3,3.9-4.8,3.9c-1.5,0-2.9-0.3-4.2-0.8L61.6,24.5z"/>
		<path class="st0" d="M75.6,26.5V33h-2.8V14.8h2.8v1.5h0.1c0.8-0.9,2.1-1.5,3.8-1.5c3.3,0,5.9,2.8,5.9,6.4s-2.7,6.4-6.2,6.4
			C77.6,27.6,76.5,27.2,75.6,26.5z M75.6,18.8v5.7c0.8,0.5,2,0.8,3.3,0.8c2.1,0,3.8-1.8,3.8-4.1s-1.7-4.1-3.8-4.1
			C77.6,17.1,76.3,17.6,75.6,18.8z"/>
		<path class="st0" d="M92.5,27.6c-2.9,0-4.4-1.4-4.4-3.9V9.4h2.8v14.1c0,1.1,0.7,1.6,1.9,1.7L92.5,27.6z"/>
		<path class="st0" d="M101.4,14.8c3.8,0,6.6,2.8,6.6,6.4s-2.9,6.4-6.6,6.4s-6.6-2.8-6.6-6.4S97.6,14.8,101.4,14.8z M101.4,25.3
			c2.2,0,3.9-1.8,3.9-4.1s-1.7-4.1-3.9-4.1c-2.2,0-3.8,1.8-3.8,4.1C97.5,23.5,99.2,25.3,101.4,25.3z"/>
	</g>
	<g>
		<path class="st0" d="M22.1,4.9L22.1,4.9L22.1,4.9l-0.2,0.8l0,0l0,0v0.1l0,0c-0.5,2.3-0.7,4.7-0.6,7s0.5,4.7,1.2,6.9
			s1.6,4.3,2.9,6.3c1.2,2,2.7,3.8,4.3,5.3c0.5,0.4,0.5,1.2,0,1.6c-0.4,0.5-1.2,0.5-1.6,0l0,0l0,0c-1.7-1.8-3.2-3.8-4.4-6
			c-1.2-2.2-2.1-4.5-2.7-6.9s-0.9-4.8-0.8-7.3c0-2.4,0.4-4.9,1-7.2l0,0l0,0V5.4l0,0c0-0.1,0-0.1,0.1-0.2L21.4,5l0.1-0.4V4.5l0,0
			c0-0.2,0.2-0.3,0.4-0.3C22.1,4.6,22.2,4.7,22.1,4.9z"/>
		<path class="st0" d="M0.4,23L0.4,23L0.4,23l0.8-0.2l0,0l0,0h0.1l0,0c2.3-0.6,4.5-1.4,6.5-2.6c2.1-1.1,4-2.5,5.6-4.1
			c1.7-1.6,3.2-3.4,4.4-5.4c1.2-2,2.2-4.1,2.8-6.3c0.2-0.6,0.8-0.9,1.4-0.8c0.6,0.2,0.9,0.8,0.8,1.4c0,0,0,0,0,0.1l0,0
			c-0.9,2.3-2,4.5-3.4,6.6c-1.4,2-3.1,3.9-5,5.4c-1.9,1.6-3.9,2.9-6.1,4s-4.5,1.8-6.9,2.3l0,0l0,0H1.3l0,0c-0.1,0-0.1,0-0.2,0H0.9
			l-0.4,0.1H0.4l0,0c-0.2,0-0.4-0.1-0.4-0.2C0.1,23.2,0.2,23.1,0.4,23z"/>
		<path class="st0" d="M26.2,30.7c-1.4-1.3-3-2.4-4.6-3.4c-2-1.2-4.2-2.1-6.4-2.7s-4.5-1-6.9-1c-2.3,0-4.6,0.2-6.8,0.8
			c-0.6,0.2-1.2-0.2-1.4-0.8c-0.2-0.6,0.2-1.2,0.8-1.4c0,0,0,0,0.1,0l0,0c2.4-0.5,4.9-0.6,7.4-0.5c2.5,0.2,4.9,0.7,7.2,1.4
			c2.3,0.8,4.5,1.9,6.6,3.2c0.8,0.5,1.5,1,2.2,1.6C24.9,29,25.5,29.9,26.2,30.7z"/>
	</g>
</g>
</svg>
